<?xml version="1.0" encoding="utf-8" ?>
<svg xmlns="http://www.w3.org/2000/svg" xmlns:cc="http://creativecommons.org/ns" xmlns:dc="http://purl.org/dc/elements/1.1/" xmlns:ev="http://www.w3.org/2001/xml-events" xmlns:inkscape="http://www.inkscape.org/namespaces/inkscape" xmlns:rdf="http://www.w3.org/1999/02/22-rdf-syntax-ns" xmlns:sodipodi="http://sodipodi.sourceforge.net/DTD/sodipodi-0.dtd" xmlns:xlink="http://www.w3.org/1999/xlink" baseProfile="tiny" height="6.0cm" version="1.2" viewBox="0 0 226.7716535433071 226.7716535433071" width="6.0cm">
  <metadata>
    <rdf:RDF>
      <cc:Work>
        <dc:format>image/svg+xml</dc:format>
        <dc:source>vpype rect 0 0 60mm 60mm circle 30mm 30mm 25mm write simple.svg
</dc:source>
        <dc:date>2026-09-22T02:58:52.841377</dc:date>
      </cc:Work>
    </rdf:RDF>
  </metadata>
  <defs/>
  <g fill="none" id="layer1" inkscape:groupmode="layer" inkscape:label="1" stroke="#0000ff" style="display:inline">
    <polygon points="0.0,0.0 0.0,226.7717 226.7717,226.7717 226.7717,0.0"/>
    <polygon points="207.874,113.3858 207.7993,109.6293 207.5753,105.8787 207.2024,102.14 206.6811,98.4191 206.0123,94.7218 205.1971,91.0541 204.2367,87.4216 203.1326,83.8302 201.8866,80.2856 200.5007,76.7933 198.977,73.3588 197.318,69.9877 195.5263,66.6851 193.6047,63.4564 191.5563,60.3067 189.3842,57.2408 187.092,54.2638 184.6833,51.3802 182.1618,48.5947 179.5315,45.9117 176.7967,43.3353 173.9616,40.8697 171.0307,38.5187 168.0087,36.2861 164.9003,34.1755 161.7104,32.1901 158.4442,30.3331 155.1067,28.6074 151.7032,27.0157 148.2391,25.5606 144.7199,24.2444 141.1512,23.0692 137.5386,22.0367 133.8878,21.1487 130.2045,20.4065 126.4947,19.8114 122.7641,19.3642 119.0188,19.0657 115.2645,18.9163 111.5072,18.9163 107.7529,19.0657 104.0075,19.3642 100.277,19.8114 96.5671,20.4065 92.8839,21.1487 89.2331,22.0367 85.6204,23.0692 82.0517,24.2444 78.5325,25.5606 75.0685,27.0157 71.665,28.6074 68.3275,30.3331 65.0612,32.1901 61.8714,34.1755 58.763,36.2861 55.7409,38.5187 52.81,40.8697 49.975,43.3353 47.2401,45.9117 44.6099,48.5947 42.0884,51.3802 39.6796,54.2638 37.3874,57.2408 35.2154,60.3067 33.1669,63.4564 31.2453,66.6851 29.4536,69.9877 27.7946,73.3588 26.2709,76.7933 24.885,80.2856 23.639,83.8302 22.535,87.4216 21.5746,91.0541 20.7593,94.7218 20.0905,98.4191 19.5693,102.14 19.1963,105.8787 18.9723,109.6293 18.8976,113.3858 18.9723,117.1423 19.1963,120.8929 19.5693,124.6316 20.0905,128.3526 20.7593,132.0498 21.5746,135.7176 22.535,139.35 23.639,142.9414 24.885,146.4861 26.2709,149.9784 27.7946,153.4128 29.4536,156.784 31.2453,160.0865 33.1669,163.3152 35.2154,166.465 37.3874,169.5308 39.6796,172.5078 42.0884,175.3914 44.6099,178.1769 47.2401,180.86 49.975,183.4364 52.81,185.902 55.7409,188.2529 58.763,190.4855 61.8714,192.5962 65.0612,194.5816 68.3275,196.4386 71.665,198.1643 75.0685,199.756 78.5325,201.211 82.0517,202.5272 85.6204,203.7025 89.2331,204.735 92.8839,205.623 96.5671,206.3651 100.277,206.9603 104.0075,207.4074 107.7529,207.706 111.5072,207.8553 115.2645,207.8553 119.0188,207.706 122.7641,207.4074 126.4947,206.9603 130.2045,206.3651 133.8878,205.623 137.5386,204.735 141.1512,203.7025 144.7199,202.5272 148.2391,201.211 151.7032,199.756 155.1067,198.1643 158.4442,196.4386 161.7104,194.5816 164.9003,192.5962 168.0087,190.4855 171.0307,188.2529 173.9616,185.902 176.7967,183.4364 179.5315,180.86 182.1618,178.1769 184.6833,175.3914 187.092,172.5078 189.3842,169.5308 191.5563,166.465 193.6047,163.3152 195.5263,160.0865 197.318,156.784 198.977,153.4128 200.5007,149.9784 201.8866,146.4861 203.1326,142.9414 204.2367,139.35 205.1971,135.7176 206.0123,132.0498 206.6811,128.3526 207.2024,124.6316 207.5753,120.8929 207.7993,117.1423"/>
  </g>
</svg>
